<?xml version="1.0" encoding="UTF-8"?>
<svg width="670px" height="486px" viewBox="0 0 670 486" version="1.1" xmlns="http://www.w3.org/2000/svg" xmlns:xlink="http://www.w3.org/1999/xlink">
    <!-- Generator: Sketch 41.2 (35397) - http://www.bohemiancoding.com/sketch -->
    <title>Artboard</title>
    <desc>Created with Sketch.</desc>
    <defs>
        <linearGradient x1="99.0030317%" y1="1.10757459%" x2="1.42782183%" y2="98.6746078%" id="linearGradient-1">
            <stop stop-color="#592D4C" offset="0%"></stop>
            <stop stop-color="#0A0031" offset="100%"></stop>
        </linearGradient>
    </defs>
    <g id="Page-1" stroke="none" stroke-width="1" fill="none" fill-rule="evenodd">
        <g id="Artboard">
            <rect id="Rectangle" fill="url(#linearGradient-1)" x="0" y="0" width="670" height="486"></rect>
            <path d="M305.299999,236 L305.299999,202.6 L334.699999,202.6 C337.500013,202.6 340.199986,202.833331 342.799999,203.3 C345.400012,203.766669 347.699989,204.599994 349.699999,205.8 C351.700009,207.000006 353.299993,208.666656 354.499999,210.8 C355.700005,212.933344 356.299999,215.66665 356.299999,219 C356.299999,225.00003 354.500017,229.33332 350.899999,232 C347.299981,234.66668 342.700027,236 337.099999,236 L305.299999,236 Z M273.899999,178.2 L273.899999,321 L343.099999,321 C349.500031,321 355.733302,320.200008 361.799999,318.6 C367.866696,316.999992 373.266642,314.53335 377.999999,311.2 C382.733356,307.86665 386.499985,303.566693 389.299999,298.3 C392.100013,293.033307 393.499999,286.800036 393.499999,279.6 C393.499999,270.666622 391.333354,263.033365 386.999999,256.7 C382.666644,250.366635 376.100043,245.933346 367.299999,243.4 C373.700031,240.333318 378.533316,236.400024 381.799999,231.6 C385.066682,226.799976 386.699999,220.800036 386.699999,213.6 C386.699999,206.9333 385.60001,201.333356 383.399999,196.8 C381.199988,192.266644 378.100019,188.633347 374.099999,185.9 C370.099979,183.166653 365.300027,181.200006 359.699999,180 C354.099971,178.799994 347.900033,178.2 341.099999,178.2 L273.899999,178.2 Z M305.299999,296.6 L305.299999,257.4 L339.499999,257.4 C346.300033,257.4 351.766645,258.966651 355.899999,262.1 C360.033353,265.233349 362.099999,270.46663 362.099999,277.8 C362.099999,281.533352 361.466672,284.599988 360.199999,287 C358.933326,289.400012 357.233343,291.299993 355.099999,292.7 C352.966655,294.100007 350.500013,295.099997 347.699999,295.7 C344.899985,296.300003 341.966681,296.6 338.899999,296.6 L305.299999,296.6 Z" id="B" fill="#FFFFFF"></path>
        </g>
    </g>
</svg>