<?xml version="1.0" encoding="UTF-8"?>
<svg width="1330px" height="864px" viewBox="0 0 1330 864" version="1.1" xmlns="http://www.w3.org/2000/svg" xmlns:xlink="http://www.w3.org/1999/xlink">
    <!-- Generator: Sketch 41.2 (35397) - http://www.bohemiancoding.com/sketch -->
    <title>icon</title>
    <desc>Created with Sketch.</desc>
    <defs></defs>
    <g id="Page-1" stroke="none" stroke-width="1" fill="none" fill-rule="evenodd">
        <g id="icon">
            <rect id="Rectangle-path" fill="#2D2B2A" x="0" y="0" width="1330" height="864"></rect>
            <g id="Group" transform="translate(357.000000, 124.000000)">
                <g id="Layer_20_51_" transform="translate(81.000000, 159.000000)" fill="#FF4040">
                    <g id="Group">
                        <polygon id="Shape" points="143.4 227 206.7 227 206.7 241.6 143.4 241.6 143.4 253.6 342.4 253.6 342.4 241.6 268.6 241.6 268.6 227 350.7 227 350.7 193.7 143.4 193.7"></polygon>
                        <polygon id="Shape" points="88.3 26.5 390 26.5 390 147.1 415.8 147.1 415.8 0.7 62.5 0.7 62.5 81.4 88.3 81.4"></polygon>
                        <path d="M0.2,291.9 L135.1,291.9 L135.1,89.5 L0.2,89.5 L0.2,291.9 Z M70.5,281.8 C66.9,281.8 64,278.9 64,275.3 C64,271.7 66.9,268.8 70.5,268.8 C74.1,268.8 77,271.7 77,275.3 C77,278.9 74.1,281.8 70.5,281.8 Z M19.7,109 L115.6,109 L115.6,258.3 L19.7,258.3 L19.7,109 L19.7,109 Z" id="Shape"></path>
                        <path d="M359.8,154.9 L359.8,297.4 L453.8,297.4 L453.8,154.9 L359.8,154.9 Z M408.7,160.7 C409.8,160.7 410.7,161.6 410.7,162.8 C410.7,163.9 409.8,164.9 408.7,164.9 C407.6,164.9 406.6,164 406.6,162.8 C406.7,161.7 407.6,160.7 408.7,160.7 Z M396.5,167.6 L420.9,167.6 L420.9,169.6 L396.5,169.6 L396.5,167.6 Z M407.9,291.2 C405.2,291.2 403,289 403,286.3 C403,283.6 405.2,281.4 407.9,281.4 C410.6,281.4 412.8,283.6 412.8,286.3 C412.8,289 410.6,291.2 407.9,291.2 Z M440.2,274.4 C418.2,274.5 384.3,274.6 373.4,274.5 L373.4,176.5 L440.2,176.5 L440.2,274.4 Z" id="Shape"></path>
                    </g>
                </g>
                <g id="Shape">
                    <path d="M45.6,308 C45.6,378.1 72.9,444 122.5,493.6 C172.1,543.2 238,570.5 308.1,570.5 C371.7,570.5 431.8,548 479.4,506.9 L119.4,125.7 C71.7,174.8 45.6,239.4 45.6,308 Z" stroke="#FF4040" stroke-width="40"></path>
                    <path d="M308,45.6 C246.4,45.6 188,66.7 141.1,105.5 L500.7,486.2 C545.8,437.6 570.5,374.7 570.5,308 C570.5,237.9 543.2,172 493.6,122.4 C444,72.9 378.1,45.6 308,45.6 Z" stroke="#FF4040" stroke-width="40"></path>
                    <g>
                        <path d="M577.1,194.3 C562.4,159.5 541.3,128.3 514.5,101.5 C487.7,74.7 456.4,53.6 421.7,38.9 C385.7,23.7 347.4,15.9 308,15.9 C268.6,15.9 230.3,23.6 194.3,38.9 C159.5,53.6 128.3,74.7 101.5,101.5 C74.7,128.3 53.6,159.6 38.9,194.3 C23.7,230.3 15.9,268.6 15.9,308 C15.9,347.4 23.6,385.7 38.9,421.7 C53.6,456.5 74.7,487.7 101.5,514.5 C128.3,541.3 159.6,562.4 194.3,577.1 C230.3,592.3 268.6,600.1 308,600.1 C347.4,600.1 385.7,592.4 421.7,577.1 C456.5,562.4 487.7,541.3 514.5,514.5 C541.3,487.7 562.4,456.4 577.1,421.7 C592.3,385.7 600.1,347.4 600.1,308 C600.1,268.6 592.4,230.3 577.1,194.3 Z M308,570.4 C237.9,570.4 172,543.1 122.4,493.5 C72.9,444 45.6,378.1 45.6,308 C45.6,239.4 71.8,174.8 119.4,125.6 L479.4,506.8 C431.7,548 371.6,570.4 308,570.4 Z M500.7,486.2 L141.1,105.5 C188,66.7 246.4,45.6 308,45.6 C378.1,45.6 444,72.9 493.6,122.5 C543.2,172.1 570.5,238 570.5,308.1 C570.4,374.7 545.7,437.5 500.7,486.2 Z" fill="#FF4040"></path>
                        <g stroke="#2D2B2A" stroke-width="13">
                            <path d="M308,61.2 C279.2,61.2 251,66.1 224.3,75.7 C202.9,83.4 182.8,94 164.3,107.3 L500.2,462.9 C535.6,419.2 554.9,364.8 554.9,308 C554.9,242.1 529.2,180.1 482.6,133.5 C435.9,86.9 373.9,61.2 308,61.2 Z"></path>
                            <path d="M61.2,308 C61.2,373.9 86.9,435.9 133.5,482.5 C180.1,529.1 242.1,554.8 308,554.8 C337.7,554.8 366.7,549.6 394.2,539.4 C416.5,531.1 437.4,519.6 456.4,505.3 L119.6,148.6 C81.8,193.1 61.2,249.1 61.2,308 Z"></path>
                            <path d="M591.5,188.2 C576,151.6 553.8,118.6 525.6,90.4 C497.3,62.1 464.4,40 427.8,24.5 C389.8,8.4 349.5,0.3 308,0.3 C266.5,0.3 226.2,8.4 188.2,24.5 C151.6,40 118.6,62.2 90.4,90.4 C62.2,118.6 40,151.6 24.5,188.2 C8.4,226.2 0.3,266.5 0.3,308 C0.3,349.5 8.4,389.8 24.5,427.8 C40,464.4 62.2,497.4 90.4,525.6 C118.6,553.8 151.6,576 188.2,591.5 C226.2,607.6 266.5,615.7 308,615.7 C349.5,615.7 389.8,607.6 427.8,591.5 C464.4,576 497.4,553.8 525.6,525.6 C553.8,497.3 576,464.4 591.5,427.8 C607.6,389.8 615.7,349.5 615.7,308 C615.7,266.5 607.6,226.2 591.5,188.2 Z M394.2,539.4 C366.7,549.6 337.7,554.8 308,554.8 C242.1,554.8 180.1,529.1 133.5,482.5 C86.9,435.9 61.2,373.9 61.2,308 C61.2,249.1 81.8,193.1 119.6,148.6 L456.4,505.3 C437.4,519.7 416.5,531.1 394.2,539.4 Z M500.2,462.9 L164.3,107.3 C182.8,94 202.9,83.4 224.3,75.7 C251,66.1 279.2,61.2 308,61.2 C373.9,61.2 435.9,86.9 482.5,133.5 C529.1,180.1 554.8,242.1 554.8,308 C554.8,364.8 535.5,419.2 500.2,462.9 Z" fill="#FF4040"></path>
                        </g>
                    </g>
                </g>
            </g>
        </g>
    </g>
</svg>