<svg xmlns="http://www.w3.org/2000/svg" width="607" height="465" style="background:#fff" viewBox="0 0 607 465">
  <defs>
    <linearGradient id="a" x1="41.256%" x2="30.096%" y1="22.842%" y2="67.785%">
      <stop offset="0%" stop-color="#B865EB"/>
      <stop offset="100%" stop-color="#4645C7"/>
    </linearGradient>
  </defs>
  <path fill="url(#a)" d="M192.836533,113.833517 C195.84436,116.917298 197.369817,121.150761 197.018923,125.443548 L190.733498,202.483792 C190.098473,210.272539 183.571615,216.173717 175.88378,216.173717 C175.477379,216.173717 175.067097,216.15782 174.656039,216.124473 C166.445356,215.454827 160.331108,208.264767 161.000679,200.063064 L165.897666,140.058647 L145.76746,141.178858 C150.740138,151.298376 153.536809,162.678471 153.536809,174.712313 C153.536809,194.911021 145.656447,213.258607 132.816216,226.894248 L113.541508,207.638549 C121.463791,198.933935 126.299838,187.377026 126.299838,174.712313 C126.299838,147.698498 104.299492,125.72079 77.2577643,125.72079 C64.5797831,125.72079 53.0099898,130.551776 44.2962552,138.466543 L25.0203826,119.210844 C35.8313291,109.052164 49.6031366,102.006346 64.9093282,99.5127216 L101.821498,57.5173845 L80.9099328,45.3866046 L55.6145227,67.9269392 C49.4676697,73.406244 40.03895,72.8668828 34.5550691,66.7264631 C29.0715764,60.5852679 29.6099501,51.1668039 35.7571911,45.6894379 L69.1223834,15.9582669 C73.9355292,11.6697443 80.9634984,10.9566709 86.5409251,14.1932258 C86.5409251,14.1932258 154.844121,53.830651 154.952417,53.9078134 C158.478435,56.1086863 160.773607,59.5534633 161.605427,63.3394609 C163.181733,68.8645203 162.016873,75.0475927 157.939673,79.6858663 L129.319699,112.247229 L181.325351,109.355385 C185.622248,109.120408 189.827152,110.748961 192.836533,113.833517 Z M165.210628,50.0062661 C151.420189,50.0062661 140.243211,38.8402099 140.243211,25.065367 C140.243211,11.2912997 151.420578,0.124080217 165.210628,0.124080217 C178.999127,0.124080217 190.175717,11.2912997 190.175717,25.065367 C190.175717,38.8402099 178.999127,50.0062661 165.210628,50.0062661 Z M77.2581525,223.703447 C87.4488242,223.703447 96.9214056,220.578565 104.772267,215.244279 L124.255804,234.706648 C111.300679,244.848655 94.9934302,250.911525 77.2581525,250.911525 C35.1295414,250.911525 0.978331309,216.796445 0.978331309,174.711924 C0.978331309,156.995984 7.04755287,140.704251 17.199797,127.762297 L36.6837217,147.225442 C31.3422943,155.068475 28.2153022,164.531143 28.2153022,174.711924 C28.2153022,201.725739 50.2160364,223.703447 77.2581525,223.703447 Z" transform="translate(205 107)"/>
</svg>
