<?xml version="1.0" encoding="UTF-8"?>
<svg width="500px" height="400px" viewBox="0 0 500 400" version="1.1" xmlns="http://www.w3.org/2000/svg" xmlns:xlink="http://www.w3.org/1999/xlink">
    <!-- Generator: Sketch 41.2 (35397) - http://www.bohemiancoding.com/sketch -->
    <title>Picture</title>
    <desc>Created with Sketch.</desc>
    <defs></defs>
    <g id="Page-1" stroke="none" stroke-width="1" fill="none" fill-rule="evenodd">
        <g id="Picture">
            <rect id="Rectangle" fill="#77CCF6" x="-94" y="-51" width="659" height="513"></rect>
            <g id="Group" transform="translate(142.000000, 92.000000)" stroke="#979797" fill="#F05133">
                <path d="M211.927529,98.3753976 L117.614175,4.07360885 C112.187626,-1.35786962 103.379105,-1.35786962 97.945731,4.07360885 L78.3626044,23.6586314 L103.203163,48.4991895 C108.977995,46.5494086 115.597088,47.8566946 120.198146,52.458663 C124.823094,57.0892979 126.121052,63.7648898 124.122355,69.5590609 L148.06424,93.5009452 C153.856515,91.5049034 160.539501,92.7944814 165.164638,97.4278086 C171.630918,103.892193 171.630918,114.367052 165.164638,120.833143 C158.697409,127.301319 148.22255,127.301319 141.75172,120.833143 C136.889591,115.967222 135.686998,108.823334 138.14963,102.832744 L115.821188,80.5043015 L115.819292,139.261265 C117.395763,140.04167 118.883504,141.08326 120.197198,142.391266 C126.661583,148.854893 126.661583,159.327855 120.197198,165.802289 C113.730918,172.265725 103.251319,172.265725 96.7918642,165.802289 C90.3265316,159.328424 90.3265316,148.855461 96.7918642,142.391266 C98.3896645,140.79631 100.238487,139.589072 102.211209,138.779887 L102.211209,79.4768936 C100.237539,78.6711207 98.3908969,77.4728889 96.7907266,75.8651348 C91.893523,70.9717231 90.714061,63.7842284 93.2256079,57.7705079 L68.7376939,33.278802 L4.07488861,97.9397114 C-1.3582962,103.375361 -1.3582962,112.183881 4.07488861,117.615739 L98.3825548,211.917717 C103.812137,217.349196 112.617624,217.349196 118.05479,211.917717 L211.926391,118.061284 C217.35787,112.627151 217.35787,103.815977 211.926391,98.3833605" id="Shape"></path>
            </g>
        </g>
    </g>
</svg>