<?xml version="1.0" encoding="UTF-8"?>
<svg width="670px" height="486px" viewBox="0 0 670 486" version="1.1" xmlns="http://www.w3.org/2000/svg" xmlns:xlink="http://www.w3.org/1999/xlink" style="background: #FFD054;">
    <!-- Generator: Sketch 41.2 (35397) - http://www.bohemiancoding.com/sketch -->
    <title>Artboard</title>
    <desc>Created with Sketch.</desc>
    <defs></defs>
    <g id="Page-1" stroke="none" stroke-width="1" fill="none" fill-rule="evenodd">
        <g id="Artboard" fill="#2C2C2C">
            <g id="bomb" transform="translate(193.000000, 101.000000)">
                <g id="Group">
                    <polygon id="Shape" points="222.693515 5.63310669 241.251308 5.63310669 241.251308 24.1908996 222.693515 24.1908996"></polygon>
                    <polygon id="Shape" points="222.693515 79.8642782 241.251308 79.8642782 241.251308 98.4220711 222.693515 98.4220711"></polygon>
                    <polygon id="Shape" points="259.8091 42.7486925 278.366893 42.7486925 278.366893 61.3064854 259.8091 61.3064854"></polygon>
                    <polygon id="Shape" points="185.577929 42.7486925 204.135722 42.7486925 204.135722 61.3064854 185.577929 61.3064854"></polygon>
                    <polygon id="Shape" points="270.943776 26.0466789 283.934231 13.0562238 270.943776 0.0657688285 244.962866 26.0466789 257.953321 39.0371339"></polygon>
                    <polygon id="Shape" points="257.953321 65.0180439 244.962866 78.008499 270.943776 103.989409 283.934231 90.998954 270.943776 78.008499"></polygon>
                    <polygon id="Shape" points="205.991501 39.0371339 218.981956 26.0466789 193.001046 0.0657688285 180.010591 13.0562238 193.001046 26.0466789"></polygon>
                    <path d="M193.001046,105.845188 L230.116632,68.7296025 L217.126177,55.7391475 L180.010591,92.8547333 L167.020136,79.8642782 L154.029681,94.7105126 C139.183447,85.4316161 120.625654,79.8642782 102.067861,79.8642782 C46.3944822,79.8642782 0,126.25876 0,181.932139 C0,237.605518 46.3944822,284 102.067861,284 C157.74124,284 204.135722,237.605518 204.135722,181.932139 C204.135722,163.374346 198.568384,146.672333 191.145267,129.970319 L204.135722,116.979864 L193.001046,105.845188 L193.001046,105.845188 Z M111.346757,120.691423 C74.2311715,120.691423 48.2502615,154.09545 48.2502615,172.653243 L29.6924686,172.653243 C29.6924686,135.537657 74.2311715,102.13363 111.346757,102.13363 L111.346757,120.691423 Z" id="Shape"></path>
                </g>
            </g>
        </g>
    </g>
</svg>